<?xml version="1.0" standalone="no"?>
<!DOCTYPE svg PUBLIC "-//W3C//DTD SVG 20010904//EN"
 "http://www.w3.org/TR/2001/REC-SVG-20010904/DTD/svg10.dtd">
<svg version="1.0" xmlns="http://www.w3.org/2000/svg"
 width="500.000000pt" height="500.000000pt" viewBox="0 0 500.000000 500.000000"
 preserveAspectRatio="xMidYMid meet">

<g transform="translate(0.000000,500.000000) scale(0.100000,-0.100000)"
fill="#000000" stroke="none">
<path d="M1458 2913 l-207 -208 419 -412 418 -413 408 0 408 0 -64 68 -65 67
70 -67 70 -68 415 415 415 415 -205 205 -205 205 -205 -205 -205 -205 205
-207 205 -206 -210 201 -210 202 -208 -208 -207 -207 -418 418 -417 417 -207
-207z m507 -333 c-66 -66 -122 -120 -125 -120 -2 0 49 54 115 120 66 66 122
120 125 120 2 0 -49 -54 -115 -120z"/>
</g>
</svg>
